<mxfile host="65bd71144e">
    <diagram id="7A7O9I5wVuzyBSR08kRe" name="ページ1">
        <mxGraphModel dx="2149" dy="1015" grid="1" gridSize="10" guides="1" tooltips="1" connect="1" arrows="1" fold="1" page="1" pageScale="1" pageWidth="827" pageHeight="1169" math="1" shadow="0">
            <root>
                <mxCell id="0"/>
                <mxCell id="1" parent="0"/>
                <mxCell id="16" value="ホストA" style="swimlane;childLayout=stackLayout;resizeParent=1;resizeParentMax=0;horizontal=1;startSize=30;horizontalStack=0;html=1;" parent="1" vertex="1">
                    <mxGeometry x="154.8" y="70" width="80" height="280" as="geometry"/>
                </mxCell>
                <mxCell id="20" value="" style="swimlane;startSize=0;horizontal=0;html=1;" parent="16" vertex="1">
                    <mxGeometry y="30" width="80" height="50" as="geometry">
                        <mxRectangle y="140" width="480" height="30" as="alternateBounds"/>
                    </mxGeometry>
                </mxCell>
                <mxCell id="24" value="N層" style="text;html=1;align=center;verticalAlign=middle;whiteSpace=wrap;rounded=0;" parent="20" vertex="1">
                    <mxGeometry x="10" y="10" width="60" height="30" as="geometry"/>
                </mxCell>
                <mxCell id="17" value="" style="swimlane;startSize=0;horizontal=0;html=1;" parent="16" vertex="1">
                    <mxGeometry y="80" width="80" height="50" as="geometry"/>
                </mxCell>
                <mxCell id="28" value="N-1層" style="text;html=1;align=center;verticalAlign=middle;resizable=0;points=[];autosize=1;strokeColor=none;fillColor=none;" parent="17" vertex="1">
                    <mxGeometry x="15" y="10" width="50" height="30" as="geometry"/>
                </mxCell>
                <mxCell id="18" value="" style="swimlane;startSize=0;horizontal=0;html=1;" parent="16" vertex="1">
                    <mxGeometry y="130" width="80" height="50" as="geometry">
                        <mxRectangle y="140" width="480" height="30" as="alternateBounds"/>
                    </mxGeometry>
                </mxCell>
                <mxCell id="41" value="`\vdots`" style="text;html=1;align=center;verticalAlign=middle;resizable=0;points=[];autosize=1;strokeColor=none;fillColor=none;" parent="18" vertex="1">
                    <mxGeometry x="10" y="10" width="60" height="30" as="geometry"/>
                </mxCell>
                <mxCell id="19" value="" style="swimlane;startSize=0;horizontal=0;html=1;" parent="16" vertex="1">
                    <mxGeometry y="180" width="80" height="50" as="geometry"/>
                </mxCell>
                <mxCell id="29" value="2層" style="text;html=1;align=center;verticalAlign=middle;resizable=0;points=[];autosize=1;strokeColor=none;fillColor=none;" parent="19" vertex="1">
                    <mxGeometry x="25" y="10" width="40" height="30" as="geometry"/>
                </mxCell>
                <mxCell id="22" value="" style="swimlane;startSize=0;horizontal=0;html=1;" parent="16" vertex="1">
                    <mxGeometry y="230" width="80" height="50" as="geometry">
                        <mxRectangle y="140" width="480" height="30" as="alternateBounds"/>
                    </mxGeometry>
                </mxCell>
                <mxCell id="30" value="１層" style="text;html=1;align=center;verticalAlign=middle;resizable=0;points=[];autosize=1;strokeColor=none;fillColor=none;" parent="22" vertex="1">
                    <mxGeometry x="15" y="10" width="50" height="30" as="geometry"/>
                </mxCell>
                <mxCell id="31" value="ホストB" style="swimlane;childLayout=stackLayout;resizeParent=1;resizeParentMax=0;horizontal=1;startSize=30;horizontalStack=0;html=1;" parent="1" vertex="1">
                    <mxGeometry x="474" y="70" width="80" height="280" as="geometry"/>
                </mxCell>
                <mxCell id="32" value="" style="swimlane;startSize=0;horizontal=0;html=1;" parent="31" vertex="1">
                    <mxGeometry y="30" width="80" height="50" as="geometry">
                        <mxRectangle y="140" width="480" height="30" as="alternateBounds"/>
                    </mxGeometry>
                </mxCell>
                <mxCell id="33" value="N層" style="text;html=1;align=center;verticalAlign=middle;whiteSpace=wrap;rounded=0;" parent="32" vertex="1">
                    <mxGeometry x="10" y="10" width="60" height="30" as="geometry"/>
                </mxCell>
                <mxCell id="34" value="" style="swimlane;startSize=0;horizontal=0;html=1;" parent="31" vertex="1">
                    <mxGeometry y="80" width="80" height="50" as="geometry"/>
                </mxCell>
                <mxCell id="35" value="N-1層" style="text;html=1;align=center;verticalAlign=middle;resizable=0;points=[];autosize=1;strokeColor=none;fillColor=none;" parent="34" vertex="1">
                    <mxGeometry x="15" y="10" width="50" height="30" as="geometry"/>
                </mxCell>
                <mxCell id="36" value="" style="swimlane;startSize=0;horizontal=0;html=1;" parent="31" vertex="1">
                    <mxGeometry y="130" width="80" height="50" as="geometry">
                        <mxRectangle y="140" width="480" height="30" as="alternateBounds"/>
                    </mxGeometry>
                </mxCell>
                <mxCell id="43" value="`\vdots`" style="text;html=1;align=center;verticalAlign=middle;resizable=0;points=[];autosize=1;strokeColor=none;fillColor=none;" parent="36" vertex="1">
                    <mxGeometry x="10" y="10" width="60" height="30" as="geometry"/>
                </mxCell>
                <mxCell id="37" value="" style="swimlane;startSize=0;horizontal=0;html=1;" parent="31" vertex="1">
                    <mxGeometry y="180" width="80" height="50" as="geometry"/>
                </mxCell>
                <mxCell id="38" value="2層" style="text;html=1;align=center;verticalAlign=middle;resizable=0;points=[];autosize=1;strokeColor=none;fillColor=none;" parent="37" vertex="1">
                    <mxGeometry x="20" y="10" width="40" height="30" as="geometry"/>
                </mxCell>
                <mxCell id="39" value="" style="swimlane;startSize=0;horizontal=0;html=1;" parent="31" vertex="1">
                    <mxGeometry y="230" width="80" height="50" as="geometry">
                        <mxRectangle y="140" width="480" height="30" as="alternateBounds"/>
                    </mxGeometry>
                </mxCell>
                <mxCell id="40" value="１層" style="text;html=1;align=center;verticalAlign=middle;resizable=0;points=[];autosize=1;strokeColor=none;fillColor=none;" parent="39" vertex="1">
                    <mxGeometry x="15" y="10" width="50" height="30" as="geometry"/>
                </mxCell>
                <mxCell id="69" value="" style="swimlane;childLayout=stackLayout;resizeParent=1;resizeParentMax=0;startSize=0;html=1;" parent="1" vertex="1">
                    <mxGeometry y="110" width="140" height="30" as="geometry"/>
                </mxCell>
                <mxCell id="70" value="" style="swimlane;startSize=0;html=1;" parent="69" vertex="1">
                    <mxGeometry width="70" height="30" as="geometry"/>
                </mxCell>
                <mxCell id="71" value="N層ヘッダ" style="text;html=1;align=center;verticalAlign=middle;resizable=0;points=[];autosize=1;strokeColor=none;fillColor=none;" parent="70" vertex="1">
                    <mxGeometry x="-5" width="80" height="30" as="geometry"/>
                </mxCell>
                <mxCell id="72" value="" style="swimlane;startSize=0;html=1;" parent="69" vertex="1">
                    <mxGeometry x="70" width="70" height="30" as="geometry"/>
                </mxCell>
                <mxCell id="73" value="メッセージ" style="text;html=1;align=center;verticalAlign=middle;resizable=0;points=[];autosize=1;strokeColor=none;fillColor=none;" parent="72" vertex="1">
                    <mxGeometry x="-5" width="80" height="30" as="geometry"/>
                </mxCell>
                <mxCell id="128" value="PDU" style="text;html=1;strokeColor=none;fillColor=none;align=center;verticalAlign=middle;whiteSpace=wrap;rounded=0;" vertex="1" parent="72">
                    <mxGeometry x="-30" y="-30" width="60" height="30" as="geometry"/>
                </mxCell>
                <mxCell id="74" value="" style="swimlane;childLayout=stackLayout;resizeParent=1;resizeParentMax=0;startSize=0;html=1;" parent="1" vertex="1">
                    <mxGeometry x="-70" y="160" width="210" height="30" as="geometry"/>
                </mxCell>
                <mxCell id="75" value="" style="swimlane;startSize=0;html=1;" parent="74" vertex="1">
                    <mxGeometry width="70" height="30" as="geometry"/>
                </mxCell>
                <mxCell id="76" value="N-1層ヘッダ" style="text;html=1;align=center;verticalAlign=middle;resizable=0;points=[];autosize=1;strokeColor=none;fillColor=none;" parent="75" vertex="1">
                    <mxGeometry x="-10" width="90" height="30" as="geometry"/>
                </mxCell>
                <mxCell id="77" value="" style="swimlane;startSize=0;html=1;" parent="74" vertex="1">
                    <mxGeometry x="70" width="140" height="30" as="geometry"/>
                </mxCell>
                <mxCell id="78" value="ペイロード" style="text;html=1;align=center;verticalAlign=middle;resizable=0;points=[];autosize=1;strokeColor=none;fillColor=none;" parent="77" vertex="1">
                    <mxGeometry x="30" width="80" height="30" as="geometry"/>
                </mxCell>
                <mxCell id="79" style="edgeStyle=none;html=1;exitX=0;exitY=1;exitDx=0;exitDy=0;entryX=0;entryY=0;entryDx=0;entryDy=0;dashed=1;endArrow=none;endFill=0;" parent="1" source="70" target="77" edge="1">
                    <mxGeometry relative="1" as="geometry"/>
                </mxCell>
                <mxCell id="80" style="edgeStyle=none;html=1;exitX=1;exitY=1;exitDx=0;exitDy=0;entryX=1;entryY=0;entryDx=0;entryDy=0;endArrow=none;endFill=0;dashed=1;" parent="1" source="72" target="77" edge="1">
                    <mxGeometry relative="1" as="geometry"/>
                </mxCell>
                <mxCell id="81" value="" style="swimlane;childLayout=stackLayout;resizeParent=1;resizeParentMax=0;startSize=0;html=1;" parent="1" vertex="1">
                    <mxGeometry x="-70" y="310" width="210" height="30" as="geometry"/>
                </mxCell>
                <mxCell id="84" value="" style="swimlane;startSize=0;html=1;" parent="81" vertex="1">
                    <mxGeometry width="210" height="30" as="geometry"/>
                </mxCell>
                <mxCell id="82" value="" style="swimlane;startSize=0;html=1;" parent="1" vertex="1">
                    <mxGeometry x="-160" y="310" width="90" height="30" as="geometry"/>
                </mxCell>
                <mxCell id="83" value="1層ヘッダ" style="text;html=1;align=center;verticalAlign=middle;resizable=0;points=[];autosize=1;strokeColor=none;fillColor=none;" parent="82" vertex="1">
                    <mxGeometry x="5" width="80" height="30" as="geometry"/>
                </mxCell>
                <mxCell id="87" value="" style="swimlane;childLayout=stackLayout;resizeParent=1;resizeParentMax=0;startSize=0;html=1;" parent="1" vertex="1">
                    <mxGeometry x="560" y="110" width="140" height="30" as="geometry"/>
                </mxCell>
                <mxCell id="88" value="" style="swimlane;startSize=0;html=1;" parent="87" vertex="1">
                    <mxGeometry width="70" height="30" as="geometry"/>
                </mxCell>
                <mxCell id="89" value="N層ヘッダ" style="text;html=1;align=center;verticalAlign=middle;resizable=0;points=[];autosize=1;strokeColor=none;fillColor=none;" parent="88" vertex="1">
                    <mxGeometry x="-5" width="80" height="30" as="geometry"/>
                </mxCell>
                <mxCell id="90" value="" style="swimlane;startSize=0;html=1;" parent="87" vertex="1">
                    <mxGeometry x="70" width="70" height="30" as="geometry"/>
                </mxCell>
                <mxCell id="91" value="メッセージ" style="text;html=1;align=center;verticalAlign=middle;resizable=0;points=[];autosize=1;strokeColor=none;fillColor=none;" parent="90" vertex="1">
                    <mxGeometry x="-5" width="80" height="30" as="geometry"/>
                </mxCell>
                <mxCell id="92" value="" style="swimlane;childLayout=stackLayout;resizeParent=1;resizeParentMax=0;startSize=0;html=1;" parent="1" vertex="1">
                    <mxGeometry x="560" y="160" width="210" height="30" as="geometry"/>
                </mxCell>
                <mxCell id="93" value="" style="swimlane;startSize=0;html=1;" parent="92" vertex="1">
                    <mxGeometry width="70" height="30" as="geometry"/>
                </mxCell>
                <mxCell id="94" value="N-1層ヘッダ" style="text;html=1;align=center;verticalAlign=middle;resizable=0;points=[];autosize=1;strokeColor=none;fillColor=none;" parent="93" vertex="1">
                    <mxGeometry x="-10" width="90" height="30" as="geometry"/>
                </mxCell>
                <mxCell id="95" value="" style="swimlane;startSize=0;html=1;" parent="92" vertex="1">
                    <mxGeometry x="70" width="140" height="30" as="geometry"/>
                </mxCell>
                <mxCell id="96" value="ペイロード" style="text;html=1;align=center;verticalAlign=middle;resizable=0;points=[];autosize=1;strokeColor=none;fillColor=none;" parent="95" vertex="1">
                    <mxGeometry x="30" width="80" height="30" as="geometry"/>
                </mxCell>
                <mxCell id="97" style="edgeStyle=none;html=1;exitX=0;exitY=1;exitDx=0;exitDy=0;entryX=0;entryY=0;entryDx=0;entryDy=0;dashed=1;endArrow=none;endFill=0;" parent="1" source="88" target="95" edge="1">
                    <mxGeometry relative="1" as="geometry"/>
                </mxCell>
                <mxCell id="98" style="edgeStyle=none;html=1;exitX=1;exitY=1;exitDx=0;exitDy=0;entryX=1;entryY=0;entryDx=0;entryDy=0;endArrow=none;endFill=0;dashed=1;" parent="1" source="90" target="95" edge="1">
                    <mxGeometry relative="1" as="geometry"/>
                </mxCell>
                <mxCell id="99" value="" style="swimlane;childLayout=stackLayout;resizeParent=1;resizeParentMax=0;startSize=0;html=1;" parent="1" vertex="1">
                    <mxGeometry x="650" y="310" width="210" height="30" as="geometry"/>
                </mxCell>
                <mxCell id="100" value="" style="swimlane;startSize=0;html=1;" parent="99" vertex="1">
                    <mxGeometry width="210" height="30" as="geometry"/>
                </mxCell>
                <mxCell id="101" value="" style="swimlane;startSize=0;html=1;" parent="1" vertex="1">
                    <mxGeometry x="560" y="310" width="90" height="30" as="geometry"/>
                </mxCell>
                <mxCell id="102" value="1層ヘッダ" style="text;html=1;align=center;verticalAlign=middle;resizable=0;points=[];autosize=1;strokeColor=none;fillColor=none;" parent="101" vertex="1">
                    <mxGeometry x="5" width="80" height="30" as="geometry"/>
                </mxCell>
                <mxCell id="104" style="edgeStyle=none;html=1;exitX=1;exitY=0.5;exitDx=0;exitDy=0;entryX=0;entryY=0.5;entryDx=0;entryDy=0;dashed=1;dashPattern=8 8;" edge="1" parent="1" source="20" target="32">
                    <mxGeometry relative="1" as="geometry"/>
                </mxCell>
                <mxCell id="105" style="edgeStyle=none;html=1;exitX=1;exitY=0.5;exitDx=0;exitDy=0;entryX=0;entryY=0.5;entryDx=0;entryDy=0;dashed=1;dashPattern=8 8;" edge="1" parent="1" source="17" target="34">
                    <mxGeometry relative="1" as="geometry"/>
                </mxCell>
                <mxCell id="107" style="edgeStyle=none;html=1;exitX=1;exitY=0.5;exitDx=0;exitDy=0;entryX=0;entryY=0.5;entryDx=0;entryDy=0;dashed=1;dashPattern=8 8;" edge="1" parent="1" source="22" target="39">
                    <mxGeometry relative="1" as="geometry"/>
                </mxCell>
                <mxCell id="109" value="" style="endArrow=classic;html=1;" edge="1" parent="1">
                    <mxGeometry width="50" height="50" relative="1" as="geometry">
                        <mxPoint x="670" y="300" as="sourcePoint"/>
                        <mxPoint x="670" y="220" as="targetPoint"/>
                    </mxGeometry>
                </mxCell>
                <mxCell id="127" value="" style="endArrow=classic;html=1;" edge="1" parent="1">
                    <mxGeometry width="50" height="50" relative="1" as="geometry">
                        <mxPoint x="60" y="240" as="sourcePoint"/>
                        <mxPoint x="60" y="300" as="targetPoint"/>
                    </mxGeometry>
                </mxCell>
                <mxCell id="129" value="PDU" style="text;html=1;strokeColor=none;fillColor=none;align=center;verticalAlign=middle;whiteSpace=wrap;rounded=0;" vertex="1" parent="1">
                    <mxGeometry x="5" y="195" width="60" height="30" as="geometry"/>
                </mxCell>
            </root>
        </mxGraphModel>
    </diagram>
</mxfile>
